<svg width="237" height="20" viewBox="0 0 237 20" fill="none" xmlns="http://www.w3.org/2000/svg">
<path d="M0 9.80878C0 7.68325 0.469786 5.90617 1.37456 4.4427C2.27933 2.97922 3.58429 1.88161 5.21985 1.13245C6.8728 0.383292 8.75194 0 10.8921 0C12.806 0 14.4068 0.261335 15.7291 0.801428C17.0515 1.34152 18.0781 2.05584 18.8436 2.97922C19.6092 3.9026 20.1486 4.9131 20.4444 6.06298L14.8592 6.58564C14.5808 5.80164 14.111 5.24413 13.4672 4.89568C12.806 4.54723 11.9186 4.37301 10.7877 4.37301C9.08253 4.37301 7.81237 4.82599 6.95979 5.74937C6.10722 6.67276 5.68963 7.97943 5.68963 9.70424C5.68963 11.551 6.15942 12.91 7.11639 13.7811C8.05596 14.6522 9.53492 15.0877 11.5359 15.0877C13.154 15.0877 14.5286 14.8787 15.6769 14.4605V12.3176H11.4663V8.38015H20.7924V16.9171C18.2173 18.5896 15.1376 19.4259 11.5707 19.4259C8.00376 19.4259 5.06325 18.5896 3.04491 16.9345C1.02657 15.2794 0.0173982 12.91 0.0173982 9.84362L0 9.80878Z" fill="#282C38"/>
<path d="M22.6752 0.470184H27.6341L36.8558 11.5682V0.470184H42.1279V18.9379H37.169L27.9473 7.83983V18.9379H22.6752V0.470184Z" fill="#282C38"/>
<path d="M48.2498 18.9379H42.5949L50.5987 0.470184H57.1061L65.1099 18.9379H59.3332L57.9587 15.5754H49.5373L48.2498 18.9379ZM53.7828 4.68639L51.1555 11.4288H56.4275L53.8002 4.68639H53.7828Z" fill="#282C38"/>
<path d="M65.5756 0.470184H75.0583C80.5914 0.470184 83.3405 2.5086 83.3405 6.60285C83.3405 7.90952 83.0621 8.97229 82.5227 9.79114C81.9833 10.61 81.1656 11.2546 80.1042 11.7424L84.6281 18.9379H78.66L75.0235 12.8052H70.8129V18.9379H65.593V0.470184H65.5756ZM77.9989 6.63769C77.9989 5.83627 77.7553 5.27875 77.2507 4.96515C76.7461 4.63412 75.9283 4.47732 74.7625 4.47732H70.7781V8.85033H74.7104C75.8413 8.85033 76.6765 8.67611 77.1985 8.34508C77.7205 8.01406 77.9815 7.43912 77.9815 6.65511L77.9989 6.63769Z" fill="#282C38"/>
<path d="M85.1334 0.470184H90.7187V14.4081H101.211L100.636 18.9379H85.1508V0.470184H85.1334Z" fill="#282C38"/>
<path d="M104.802 11.8992L97.1284 0.470184H103.149L107.638 7.63077L112.162 0.470184H118.025L110.352 11.8992V18.9379H104.802V11.8992Z" fill="#282C38"/>
<path d="M124.11 0.470184H132.323C137.16 0.470184 139.579 2.05562 139.579 5.20906C139.579 7.21263 138.569 8.53673 136.551 9.16393C139.057 10.0176 140.292 11.4811 140.292 13.5892C140.292 15.3314 139.648 16.6555 138.361 17.5789C137.073 18.5023 135.176 18.9553 132.671 18.9553H124.093V0.470184H124.11ZM135.838 3.27518C135.072 2.85705 133.872 2.64798 132.201 2.64798H126.616V8.2057H132.497C134.028 8.2057 135.159 7.97921 135.89 7.50881C136.621 7.03841 136.969 6.30667 136.969 5.3136C136.969 4.39021 136.586 3.71074 135.838 3.27518ZM137.63 13.6415C137.63 11.4637 135.959 10.3835 132.619 10.3835H126.599V16.7775H132.532C134.324 16.7775 135.611 16.5336 136.412 16.0458C137.212 15.5579 137.612 14.7565 137.612 13.6589L137.63 13.6415Z" fill="#282C38"/>
<path d="M142.306 0.470184H150.902C155.652 0.470184 158.035 2.31695 158.035 6.01049C158.035 8.53673 156.817 10.1744 154.399 10.941L159.027 18.9379H156.087L151.824 11.4637C151.685 11.4637 151.528 11.4811 151.337 11.4811H144.812V18.9204H142.306V0.470184ZM155.373 5.95822C155.373 4.82577 155.008 4.00692 154.277 3.48425C153.546 2.96158 152.363 2.71767 150.728 2.71767H144.812V9.23362H150.675C153.807 9.23362 155.373 8.13601 155.373 5.95822Z" fill="#282C38"/>
<path d="M161.744 18.9379H159.012L167.938 0.470184H170.565L179.491 18.9379H176.655L174.237 13.8505H164.145L161.744 18.9379ZM169.208 3.22291L165.137 11.725H173.297L169.208 3.22291Z" fill="#282C38"/>
<path d="M180.49 0.470184H182.961L195.227 15.314V0.470184H197.733V18.9379H195.245L182.978 4.09403V18.9379H180.472V0.470184H180.49Z" fill="#282C38"/>
<path d="M200.758 0.470184H208.553C211.894 0.470184 214.451 1.27161 216.226 2.85705C218.001 4.44248 218.906 6.7248 218.906 9.70402C218.906 12.6832 217.949 14.9481 216.052 16.5336C214.156 18.119 211.424 18.9204 207.874 18.9204H200.741V0.470184H200.758ZM216.261 9.70402C216.261 5.05226 213.703 2.71767 208.57 2.71767H203.333V16.673H208.014C210.728 16.673 212.799 16.0806 214.19 14.8959C215.582 13.7112 216.278 11.9864 216.278 9.6866L216.261 9.70402Z" fill="#282C38"/>
<path d="M234.355 14.025C234.355 13.1713 234.025 12.4918 233.363 12.004C232.702 11.5162 231.641 11.1851 230.179 10.9761L226.978 10.5057C225.325 10.2618 224.003 9.93073 222.993 9.47775C221.984 9.0422 221.253 8.46726 220.801 7.75294C220.349 7.03863 220.122 6.16751 220.122 5.12217C220.122 3.51931 220.853 2.2649 222.315 1.35894C223.776 0.452981 225.812 0 228.405 0C230.771 0 232.581 0.383292 233.851 1.13245C235.121 1.89904 236.026 3.1186 236.565 4.80857L234.112 5.24412C233.677 4.18136 233.015 3.41478 232.128 2.94438C231.241 2.47397 230.005 2.24748 228.405 2.24748C226.578 2.24748 225.168 2.49139 224.177 2.97922C223.185 3.46705 222.698 4.14652 222.698 5.05248C222.698 5.95844 223.028 6.60307 223.689 7.03863C224.351 7.49161 225.516 7.84005 227.169 8.06654L230.736 8.58921C232.876 8.90282 234.442 9.49518 235.469 10.4011C236.495 11.2897 237 12.5092 237 14.0424C237 15.715 236.269 17.0216 234.825 17.9799C233.381 18.9207 231.363 19.4085 228.787 19.4085C223.115 19.4085 220.053 17.4572 219.618 13.572H222.245C222.489 14.7916 223.133 15.6975 224.211 16.2899C225.273 16.8822 226.804 17.161 228.787 17.161C230.58 17.161 231.954 16.8822 232.928 16.3422C233.903 15.8021 234.373 15.0355 234.373 14.025H234.355Z" fill="#282C38"/>
</svg>
